<svg version="1.2" xmlns="http://www.w3.org/2000/svg" viewBox="0 0 200 200" width="267" height="267">
	<title>avatar-svg</title>
	<defs>
		<linearGradient id="g1" x1="100" y1="162.7" x2="100" y2="129.5" gradientUnits="userSpaceOnUse">
			<stop offset="0" stop-color="#df9164" stop-opacity=".8"/>
			<stop offset=".7" stop-color="#c06530" stop-opacity="1"/>
		</linearGradient>
		<linearGradient id="g2" x1="100" y1="137.2" x2="100" y2="134.6" gradientUnits="userSpaceOnUse">
			<stop offset=".1" stop-color="#e69d73"/>
			<stop offset="1" stop-color="#df9164"/>
		</linearGradient>
		<radialGradient id="g3" cx="78.5" cy="86.6" r="11.6" gradientUnits="userSpaceOnUse">
			<stop offset="0" stop-color="#ffffff"/>
			<stop offset=".544" stop-color="#fdfefe"/>
			<stop offset=".74" stop-color="#f6f8f9"/>
			<stop offset=".879" stop-color="#eaeff2"/>
			<stop offset=".992" stop-color="#d9e3e8"/>
			<stop offset="1" stop-color="#d8e2e7"/>
		</radialGradient>
		<radialGradient id="g4" cx="81.1" cy="86" r="15.2" gradientUnits="userSpaceOnUse">
			<stop offset="0" stop-color="#df9164" stop-opacity="1"/>
			<stop offset=".7" stop-color="#df9164" stop-opacity=".3"/>
			<stop offset="1" stop-color="#eeaa83" stop-opacity="0"/>
		</radialGradient>
		<radialGradient id="g5" cx="76.8" cy="102.9" r="21.7" gradientUnits="userSpaceOnUse">
			<stop offset=".9" stop-color="#000000" stop-opacity="0"/>
			<stop offset="1" stop-color="#000000" stop-opacity=".2"/>
		</radialGradient>
		<radialGradient id="g6" cx="121.2" cy="86.6" r="11.6" gradientUnits="userSpaceOnUse">
			<stop offset="0" stop-color="#ffffff"/>
			<stop offset=".544" stop-color="#fdfefe"/>
			<stop offset=".74" stop-color="#f6f8f9"/>
			<stop offset=".879" stop-color="#eaeff2"/>
			<stop offset=".992" stop-color="#d9e3e8"/>
			<stop offset="1" stop-color="#d8e2e7"/>
		</radialGradient>
		<radialGradient id="g7" cx="118.5" cy="86" r="15.2" gradientUnits="userSpaceOnUse">
			<stop offset="0" stop-color="#df9164" stop-opacity="1"/>
			<stop offset=".7" stop-color="#df9164" stop-opacity=".3"/>
			<stop offset="1" stop-color="#eeaa83" stop-opacity="0"/>
		</radialGradient>
		<radialGradient id="g8" cx="122.8" cy="102.9" r="21.7" gradientUnits="userSpaceOnUse">
			<stop offset=".9" stop-color="#000000" stop-opacity="0"/>
			<stop offset="1" stop-color="#000000" stop-opacity=".2"/>
		</radialGradient>
		<radialGradient id="g9" cx="100" cy="113.4" r="34.8" gradientUnits="userSpaceOnUse">
			<stop offset="0" stop-color="#fdc5a5" stop-opacity=".5"/>
			<stop offset=".9" stop-color="#eeaa83" stop-opacity="0"/>
		</radialGradient>
		<radialGradient id="g10" cx="100" cy="62.4" r="31.4" gradientUnits="userSpaceOnUse">
			<stop offset="0" stop-color="#fdc5a5" stop-opacity=".5"/>
			<stop offset=".9" stop-color="#eeaa83" stop-opacity="0"/>
		</radialGradient>
	</defs>
	<style>
		tspan { white-space:pre } 
		.s0 { fill: #3b3128 } 
		.s1 { fill: #eeaa83 } 
		.s2 { fill: #fdc5a5 } 
		.s3 { fill: #df9164 } 
		.s4 { fill: none;stroke: #c06530;stroke-width: 1.3 } 
		.s5 { fill: url(#g1) } 
		.s6 { fill: #f3f1f3 } 
		.s7 { fill: #131111 } 
		.s8 { fill: #000000 } 
		.s9 { fill: #f3f1f4 } 
		.s10 { fill: #cfc8d7 } 
		.s11 { fill: #e1e0e1 } 
		.s12 { fill: #152c5e } 
		.s13 { fill: #0a1f4f } 
		.s14 { fill: #01153f } 
		.s15 { fill: #233b6d } 
		.s16 { fill: #000f30 } 
		.s17 { fill: #eeaa83;stroke: #c06530;stroke-width: 1.3 } 
		.s18 { fill: #c06530 } 
		.s19 { fill: #e69d73 } 
		.s20 { fill: url(#g2) } 
		.s21 { fill: #ffffff } 
		.s22 { fill: none;stroke: #c06530;stroke-width: .6 } 
		.s23 { fill: url(#g3) } 
		.s24 { fill: #7b5c33 } 
		.s25 { fill: #8a6d47 } 
		.s26 { fill: #5c3d14 } 
		.s27 { fill: #4d3009 } 
		.s28 { opacity: .9;fill: #000000 } 
		.s29 { opacity: .7;fill: #ffffff } 
		.s30 { opacity: .9;fill: #ffffff } 
		.s31 { fill: url(#g4) } 
		.s32 { fill: url(#g5) } 
		.s33 { fill: url(#g6) } 
		.s34 { fill: url(#g7) } 
		.s35 { fill: url(#g8) } 
		.s36 { fill: url(#g9) } 
		.s37 { fill: url(#g10) } 
		.s38 { fill: #2a232b } 
		.s39 { fill: #2c2219 } 
		.s40 { fill: #0d0905 } 
		.s41 { fill: #26120b } 
		.t42 { font-size: 10px;fill: #333333;font-family: "Roboto" } 
	</style>
	<g id="svga-group-wrapper">
		<g id="svga-group-backs-single">
		</g>
		<g id="svga-group-humanwrap-move">
			<g id="svga-group-humanwrap">
				<g id="svga-group-hair-back-move">
					<g id="svga-group-hair-back">
						<path id="SvgjsPath5417" class="s0" d="m100.4 101.9h-0.8v-0.9h0.8z"/>
					</g>
				</g>
				<g id="svga-group-humanbody-single">
					<path id="SvgjsPath3835" class="s1" d="m181.1 186.3c-1.9-4.1-7-10-12.6-11.7-7-2-22.8-4.5-28.7-5.9-4.7-1.1-14.2-9.6-17.5-12.4-0.6-0.5-1.1-1.6-1.1-2.4-0.1-9.2 3.6-33.7 3.6-33.7h-24.8-24.8c0 0 3.7 24.5 3.6 33.7 0 0.8-0.5 1.9-1.1 2.4-3.3 2.8-12.8 11.3-17.5 12.4-5.9 1.4-21.7 3.9-28.7 6-5.6 1.6-10.7 7.5-12.6 11.6-3.2 6.8-3.9 19.1-3.9 29.7h85 85c0-10.6-0.7-22.9-3.9-29.7z"/>
					<path id="SvgjsPath3836" class="s2" d="m150.3 172.9c20.7 3 29.4 7.4 32.1 43.1h2.6c0-10.6-0.7-22.9-3.9-29.7-1.9-4.1-7-10-12.6-11.7-7-2-22.8-4.5-28.7-5.9-4.7-1.1-15.5-10.2-18.4-13.9 2.9 4 10.9 13.3 17.9 15.7 3.4 1.2 6.2 1.7 11 2.4zm-89.6-2.4c7-2.4 15-11.7 17.9-15.7-2.9 3.7-13.7 12.8-18.4 13.9-5.9 1.4-21.7 4-28.7 6-5.6 1.6-10.7 7.5-12.6 11.6-3.2 6.8-3.9 19.1-3.9 29.7h2.6c2.7-35.5 11.4-40.1 32.1-43.1 4.8-0.7 7.6-1.2 11-2.4z"/>
					<path id="SvgjsPath3837" fill-rule="evenodd" class="s3" d="m92.5 180.1c-1-3.6-5.4-17.9-5.4-17.9 0 0 2.2 12.9 2.5 17-6.7-1.2-37.1-2.4-37.1-2.4 0 0 28.9 2.2 37.8 5.6 1.7 0.7 6 2 6 2 0 0-3.2-2.4-3.8-4.3zm13 3.2q-0.1 0.1-0.3 0.2 0.2-0.1 0.3-0.2zm-9.2 1.1c0 0 2.5 2.6 3.7 2.6 1.6 0.1 4.1-2.5 5.2-3.5-1.1 0.8-3.5 1.2-4.5 1.2-1.1 0.1-4.4-0.3-4.4-0.3zm17.9-6.4c-1.3 0.3-3.8 0.7-3.8 0.7l2-12.6c-0.6 2.6-3.8 13.7-6.9 17.2 1.6-1.4 5.2-2 7.1-2.3 8.7-1.3 8.7-1.3 34.9-4.2 0 0-24.8-0.1-33.3 1.2z"/>
					<path id="SvgjsPath3838" fill-rule="evenodd" class="s4" d="m181.1 186.3c-1.9-4.1-7-10-12.6-11.7-7-2-22.8-4.5-28.7-5.9-4.7-1.1-14.2-9.6-17.5-12.4-0.6-0.5-1.1-1.6-1.1-2.4-0.1-9.2 3.6-33.7 3.6-33.7h-24.8-24.8c0 0 3.7 24.5 3.6 33.7 0 0.8-0.5 1.9-1.1 2.4-3.3 2.8-12.8 11.3-17.5 12.4-5.9 1.4-21.7 3.9-28.7 6-5.6 1.6-10.7 7.5-12.6 11.6-3.2 6.8-3.9 19.1-3.9 29.7h85 85c0-10.6-0.7-22.9-3.9-29.7z"/>
				</g>
				<g id="svga-group-chinshadow-single">
					<path id="SvgjsPath4136" class="s5" d="m120.6 151.9c0.2-5.6 1.2-14.3 2.1-21.2-12.8-2-32.7-2-45.4 0.1 0.9 6.8 1.9 15.3 2.1 20.9 7.2 5.9 15.3 10.9 20.7 10.8 5.4 0 13.4-4.8 20.5-10.6z"/>
				</g>
				<g id="svga-group-clothes-single">
					<path id="SvgjsPath5360" class="s6" d="m124.5 218.7h-49.4v-47.7c18.9 4 31.4 3.7 49.4 0 0 0 0 47.7 0 47.7z"/>
					<path id="SvgjsPath5361" class="s7" d="m106.3 218.5c-2.3 0-9.1 0.2-14-0.2v-0.1c-0.7-15.9 0.9-26.1 3.8-33.4l0.1-0.1-0.1-0.1c-0.8-0.8-2.1-1.7-3.4-2.6-1.4-0.9-2.8-1.9-3.7-2.7q0.8-1 2-1.9c0.2-0.1 1-0.7 5.1-4.2q0.2-0.3 0.3-0.3c0.7-0.1 1.8-0.2 3.1-0.2 1.9 0 4.1 0.1 5.6 0.4 1.3 1.3 2.9 4.6 3.5 6.1-0.8 2-1.8 2.7-3.1 3.7-0.7 0.4-1.5 1-2.3 1.8h-0.1v0.1c3.5 17.3 3.5 21.3 3.5 25.2 0 1.7 0 5.6 0.3 8.5q-0.2 0-0.6 0z"/>
					<path id="SvgjsPath5362" fill-rule="evenodd" class="s8" d="m103.3 184.8c5 25 2.8 24.3 3.7 33.9-0.8 0.1-9.1 0.2-14.9-0.2q0-0.2 0-0.3c-0.7-15.1 0.8-25.7 3.9-33.5-1.6-1.6-5.5-3.7-7.2-5.4 0.6-0.8 1.3-1.5 2.1-2.1 0 0.1 5.3-4.4 5.4-4.4 2.1-0.5 6.4-0.3 8.9 0.2 1.3 1.2 3 4.5 3.6 6.2-1.3 3-2.9 3.2-5.5 5.6zm-0.4-0.5q0 0-0.1 0-0.4-0.1-0.8-0.2l2 30.7-3.6-30.9q0 0-0.1 0l-0.3 27.8-1.5-27.7q-0.1 0-0.1 0l-2.3 29.8 0.9-29.5q-0.3 0.1-0.5 0.1c-3 6.9-3.7 27.7-4 33.8 4 0 10.2-0.2 14.2 0-1.2-7.1-0.7-13.9-2.4-22.9q0 0 0 0.1c-0.6-3.9-1.3-10.2-1.4-11.1zm5.3-5.2c-0.9-1.9-2.1-4.3-3.4-5.9-2.2-0.1-5.9-0.2-8.3-0.1-0.7 0.7-1.4 1.5-2.2 2.3 0 0-2.9 2.4-3 2.4-0.8 0.6-1.4 1.1-1.9 1.5 3 2 5 3 6.4 4.6 2.4-1.1 5.4-1.3 7.8-0.2 1.3-1 2.9-2.1 4.6-4.6z"/>
					<path id="SvgjsPath5363" fill-rule="evenodd" class="s9" d="m98 172.7c-12.6-12-18.2-3.2-20.2-23.6v0.1c-1 1-2.6 5.8-4.3 9.9 2.6 13.3-1.8 4.4 8 38.5 2.7-7.6 9.3-20.1 16.5-24.9zm28.5-13.6c-1.2-3.2-3.5-7.8-4.4-8.8 1.2 17.5-12.9 14-20.7 22.2 7.5 4.9 14.6 17.6 17.1 25.1 11.2-37 5.2-20.8 8-38.5z"/>
					<path id="SvgjsPath5364" fill-rule="evenodd" class="s10" d="m126.7 159c-2.9 17.9 3.2 1.5-8.2 39.1-0.8-2.7-2.8-7.2-6.4-13.2-6.1-9.4-7.7-10.2-11-12.3 1.6-1.8 3.7-3.1 5.8-4.1 2.8-1.5 11.9-4.9 14-9.8 0.7-1 1-4.5 1-8.8 0.9 0.8 3.4 5.7 4.8 9.1zm-0.5-0.1c-1.3-2.9-2.9-6.9-4-8.1 0.7 6.7 0.2 11.8-12 17.2-4 1.8-4.9 2-8.3 4.5 7.1 3.6 14.2 15.7 16.6 23 3.6-16.7 4.9-13.7 6.5-29 0.2-1.1 0.5-4.9 1.2-7.6zm-27.5 13.7c-7.4 4.8-14.7 18-17.2 25.5-6.1-20.7-7.1-21.2-7.6-31.6 0-1.2-0.1-5.1-0.6-7.5 1.9-4.6 3.8-9.4 4.6-10.2 1.7 6.8 0.7 10.7 4.4 13.8 3.1 2.6 10.5 4.7 16.4 10zm-1.2 0.2c-5.4-4.3-12.6-7.1-14.9-8.8-4.7-3-3.6-8.4-4.8-14.5-0.6 0.7-2.6 6.3-4 9.4 0.7 2.5 0.9 5.1 1.2 7.6 1.4 14.6 2.8 11.8 6.5 29 1.6-4.9 3.6-8.1 5.5-11.2 5.4-8.4 7.2-9.5 10.5-11.5z"/>
					<path id="SvgjsPath5365" fill-rule="evenodd" class="s11" d="m125.4 161.8c-1.4 6.8-9.2 30.8-9.2 30.8l1.1 2.2c0 0 8.9-25.9 8.1-33zm-43.4 32.1l1.3-2.8c0 0-7.3-22.5-8.7-29.3-0.8 7.1 7.4 32.1 7.4 32.1z"/>
					<path id="SvgjsPath5366" fill-rule="evenodd" class="s12" d="m121.1 182.7c6-17.7 2.3-19.1 5.3-25 0.1-0.2 1.2 0.9 1.3 1.4 1.1 4.8 45.4 14.7 46.8 15.8 1.2 0.9 4.8 2.6 4.8 2.6 4.2 7.8 6.6 9.1 7.8 29.8 0.1 2.6-0.1 10-0.1 12l-72.7-0.6c0.2-6.6 1-18.5 6.8-36zm-35.4 36l-72.7 0.6c0-2-0.2-9.4-0.1-12 1.2-20.7 3.6-22 7.8-29.8 0 0 3.6-1.7 4.8-2.6 1.4-1.1 45.7-11 46.8-15.8 0.1-0.5 1.2-1.6 1.3-1.4 3 5.9-0.7 7.3 5.3 25 5.8 17.5 6.6 29.4 6.8 36z"/>
					<path id="SvgjsPath5367" fill-rule="evenodd" class="s13" d="m126.2 159.7c-0.3-0.3 0.3-2.2 0.2-2-3 5.9 0.7 7.3-5.3 25-5.6 16.7-7.6 36-6.8 36 2.3-14.3 7.6-26.8 11.5-40.7 1.9-6.6 0.3-11.7 0.4-18.3zm-52 18.3c3.9 13.9 9.2 26.4 11.5 40.7 0.8 0-1.2-19.3-6.8-36-6-17.7-2.3-19.1-5.3-25-0.1-0.2 0.5 1.7 0.2 2 0.1 6.6-1.5 11.7 0.4 18.3z"/>
					<path id="SvgjsPath5368" fill-rule="evenodd" class="s14" d="m144.6 174.6c0 0-2 2.2-7.4 5.9 4.5-5 6.6-7 6.6-7zm-10.3 40c4.4-13.6 7-19.4 10.9-31.1l1.3 1.2c-4.3 13.4-5.8 17.7-12.2 29.9zm-78.1-41.2c0 0 2.1 2 6.6 7-5.4-3.7-7.3-5.8-7.3-5.8zm-2.6 11.2l1.3-1.2c3.8 11.7 6.4 17.5 10.9 31.1-6.4-12.1-7.9-16.5-12.2-29.9z"/>
					<path id="SvgjsPath5369" fill-rule="evenodd" class="s15" d="m176.8 179.7q0 0 0 0c-0.2-0.2-0.4-0.3-0.7-0.5-8.4-5.3-33-8.8-46.2-17.8 11.6 5 43.4 12.6 44.6 13.5 1.2 0.9 4.8 2.6 4.8 2.6 4.2 7.8 6.6 9.1 7.8 29.8 0.1 2.6-0.1 10-0.1 12h-0.2c-1.3-13.9-6.3-36.9-10-39.6zm-33.1 4.8c-4-2.5-6.3-3.2-6.6-4 0.9 0.3 7.3 2.5 8.3 2.8-3.4 9.5-5.1 15.1-10.3 29.3 4.3-15 8.6-28.1 8.6-28.1zm-12.4-21.3c3.6 3 9.1 7.4 12.5 10.3-2.5 2.1-4.5 4.7-7.4 6.9 2.9-3.5 5.7-7 5.7-7 0 0-8-7.2-10.8-10.2zm36.2 39.7c0-9.9 2.6-15.6 8.2-23.9q0.2 0.1 0.4 0.2 0.4 0.3 0.7 0.5 0 0 0 0c-5.9 7.3-7 14.1-9.3 23.2zm-154.3 16.4h-0.2c0-2-0.2-9.4-0.1-12 1.2-20.7 3.6-22 7.8-29.8 0 0 3.6-1.7 4.8-2.6 1.2-0.9 33-8.5 44.6-13.5-13 8.9-37.3 12.5-45.9 17.7q0 0 0 0 0 0 0 0-0.2 0.1-0.4 0.2c-0.2 0.1-0.3 0.2-0.6 0.4q0 0 0 0 0 0 0 0c-3.7 2.7-8.7 25.7-10 39.6zm51.7-6.7c-5.2-14.2-6.9-19.8-10.3-29.3 1-0.3 7.4-2.5 8.3-2.8-0.3 0.8-2.6 1.5-6.6 4 0 0 4.3 13.1 8.6 28.1zm-7-39.2c0 0 2.8 3.5 5.7 7-2.9-2.2-4.9-4.8-7.4-6.9 3.4-2.9 8.9-7.3 12.5-10.3-2.8 3-10.8 10.2-10.8 10.2zm-25.4 29.5c0-9.9-2.8-15.5-8.3-23.8q0 0 0 0-0.3 0.1-0.4 0.2-0.3 0.2-0.6 0.4c5.5 7 7 14.1 9.3 23.2z"/>
					<path id="SvgjsPath5370" fill-rule="evenodd" class="s16" d="m128.7 160c2.4 1.7 4.8 2.1 5.9 2.4 5.4 1.5 6.2 2.8 21.2 7.1 18.2 5.1 14.5 1.9 18.7 5.1 1.2 0.9 4.9 2.8 4.9 2.8 4.2 7.7 6.7 9.2 7.9 29.9 0.1 2.6-0.3 10-0.3 12l-73-0.3c0.2-6.6 0.9-18.8 6.6-36.3 6.1-17.7 2.7-18.9 5.7-24.8 0.1-0.2 0.2-0.6 0.5-0.6 0.2 0 0.6 0.3 0.6 0.6 0.1 0.5 1.1 1.9 1.3 2.1zm57.8 59c-2.1-29.4-1.4-27.5-7.8-40.6-7 8.1-8.5 13.7-11.2 24.5 0.9-10.5 4.8-18.7 10.9-25.1-2.5-1-6.9-3.3-7.1-3.4-2.7-0.2-6.4-0.9-9-1.6-27.3-7.7-17.4-5.8-29.9-10.2-0.2 0-2.1-0.9-2.5-1.2 0.7 0.7 15.6 12.1 14.2 12.1-1.7 2.1-2.8 3-6.4 6.7 1 0.4 7 2.6 7.7 3.1-2.5 9.2-3.6 14.8-12.1 33.2 0.2-0.4 11.3-32.1 11.6-32.8-3.7-1.4-7.7-2.9-8.5-3.3 0.7-0.8 1.9-2.2 6.9-7.1-8.2-8-14-9.2-16-14.5-0.1-0.2-0.4-0.2-0.5 0-1.4 4.4 0.2 9.8-2.8 19.2-4.4 14.9-6.4 20.1-9.6 40.2 27.7-0.1 54.6 0.1 72.1 0.8zm-113.9-61.1c0-0.3 0.4-0.6 0.6-0.6 0.3 0 0.4 0.4 0.5 0.6 3 5.9-0.4 7.1 5.7 24.8 5.7 17.5 6.4 29.7 6.6 36.3l-73 0.3c0-2-0.4-9.4-0.3-12 1.2-20.7 3.7-22.2 7.9-29.9 0 0 3.7-1.9 4.9-2.8 4.2-3.2 0.5 0 18.8-5.1 14.9-4.3 15.7-5.6 21.1-7.1 1.1-0.3 3.5-0.7 5.9-2.4 0.2-0.2 1.2-1.6 1.3-2.1zm13 60.3c-3.2-20.1-5.2-25.3-9.6-40.2-3-9.4-1.4-14.8-2.8-19.2-0.1-0.2-0.4-0.2-0.5 0-2 5.3-7.8 6.5-16 14.5 5 4.9 6.2 6.3 6.9 7.1-0.8 0.4-4.8 1.9-8.5 3.3 0.3 0.7 11.4 32.4 11.6 32.8-8.5-18.4-9.6-24-12.1-33.2 0.7-0.5 6.7-2.7 7.7-3.1-3.6-3.7-4.7-4.6-6.4-6.7-1.4 0 13.5-11.4 14.2-12.1-0.4 0.3-2.3 1.2-2.5 1.2-12.5 4.4-2.6 2.5-29.9 10.2-2.6 0.7-6.3 1.4-9 1.6-0.2 0.1-4.6 2.4-7.1 3.4 6.1 6.4 10 14.6 10.9 25.1-2.7-10.8-4.2-16.4-11.2-24.5-6.4 13.1-5.7 11.2-7.8 40.6 17.5-0.7 44.4-0.9 72.1-0.8z"/>
				</g>
				<g id="svga-group-head">
					<g id="svga-group-ears-left-move">
						<g id="svga-group-ears-left">
							<path id="SvgjsPath5387" class="s17" d="m55 87.2c-1.2-2.1-4.8-7.2-8.5-5.9-2.4 0.7-2.8 3.3-3.2 5.6-0.5 3.1 0.4 9.1 1.2 11.3 0.7 2.1 3 6.2 4.4 7.7 1.9 1.9 4.1 7.9 4.5 8.6 0.5 0.9 1.3 2.4 3.5 2.2 2.4-0.2 3.9-1.5 4.9-1.8 2.7-0.5-3.8-22.3-6.8-27.7z"/>
							<path id="SvgjsPath5388" fill-rule="evenodd" class="s18" d="m54.1 102.5c0.7 0.9 1.3 1.8 1.5 2.6 0.1 0.2 0.1 0.8 0.1 1.2 0 0.4-0.1 0.7-0.2 0.7 0 0-0.1-0.3-0.1-0.7 0-0.3 0-0.6 0-0.8-0.1 0.1-0.3 0.2-0.6 0.2q-0.2 0-0.5-0.1c-1-0.4-1.3-1.1-1.6-1.6-0.2-0.5-0.4-0.9-1-1.2-1-0.4-2.6-2.2-2.9-3.6-1-3.8 1.6-8.5 2-9.2q-0.3-0.7-0.6-1.2c-0.2-0.5-0.4-1.1-0.8-1.7-0.6 1.3-3.4 7.2-2.6 11.1 0.8 3.7 4.2 8.1 5.4 9.5 0.2 0.3 0.3 0.6 0.3 0.6-0.1 0.1-0.3-0.1-0.5-0.3-1.2-1.5-4.6-5.8-5.4-9.7q-0.1-0.5-0.2-0.9c-0.1-0.3-1.2-2.3-1.5-5-0.3-3.3 0.5-8.3 0.6-9.2-0.4 0-0.6 0.2-0.8 0.4-0.3 0.2-0.5 0.4-0.5 0.4-0.1 0-0.1-0.3 0.2-0.6 0.3-0.3 0.8-0.7 1.6-0.4 2 0.7 3.5 3.4 4.5 5.6 0.8 1.9 2.1 5.4 2.3 7.2 0.1 0.5 0 1.2-0.1 1.9-0.1 0.8-0.2 1.7-0.1 2.1 0.1 0.8 0.8 1.8 1.5 2.7zm-4.8-15.7c-0.6-0.9-1.2-1.8-1.9-2.5-0.4 0.8-2.8 6.1-1 12.1 0.1-4.1 2.5-8.8 2.9-9.6zm6 18.3c-0.2-0.7-0.8-1.6-1.4-2.4-0.7-1-1.4-1.9-1.6-2.8-0.1-0.5 0-1.4 0.1-2.2 0.1-0.7 0.2-1.4 0.1-1.8 0-0.5-0.2-1.1-0.3-1.8-0.6 0.5-3 2.8-0.9 8.2q0.3 0.1 0.5 0.2c0.7 0.4 0.9 0.8 1.2 1.3 0.3 0.6 0.5 1.1 1.4 1.5 0.6 0.3 0.9-0.1 0.9-0.2z"/>
						</g>
					</g>
					<g id="svga-group-ears-right-move">
						<g id="svga-group-ears-right">
							<path id="SvgjsPath5389" class="s17" d="m144.8 87.2c1.2-2.1 4.8-7.2 8.5-5.9 2.3 0.7 2.8 3.3 3.2 5.6 0.5 3.1-0.4 9.1-1.2 11.3-0.7 2.1-3 6.2-4.5 7.7-1.8 1.9-4 7.9-4.4 8.6-0.5 0.9-1.3 2.4-3.5 2.2-2.4-0.2-3.9-1.5-5-1.8-2.6-0.5 3.9-22.3 6.9-27.7z"/>
							<path id="SvgjsPath5390" fill-rule="evenodd" class="s18" d="m147.2 99.8c0.1-0.4 0-1.3-0.1-2.1-0.1-0.7-0.2-1.4-0.2-1.9 0.3-1.8 1.6-5.3 2.4-7.2 1-2.2 2.5-4.9 4.5-5.6 0.8-0.3 1.3 0.1 1.6 0.4 0.2 0.3 0.3 0.6 0.2 0.6-0.1 0-0.2-0.2-0.5-0.4-0.2-0.2-0.5-0.4-0.9-0.4 0.2 0.9 1 5.9 0.7 9.2-0.3 2.7-1.4 4.7-1.6 5q0 0.4-0.1 0.9c-0.8 3.8-4.2 8.2-5.4 9.7-0.2 0.2-0.5 0.4-0.5 0.3-0.1 0 0.1-0.3 0.3-0.6 1.2-1.4 4.6-5.8 5.3-9.5 0.8-3.9-1.9-9.8-2.6-11.1-0.3 0.6-0.5 1.2-0.7 1.7q-0.3 0.5-0.6 1.2c0.4 0.7 2.9 5.4 2 9.2-0.3 1.4-1.9 3.2-2.9 3.6-0.6 0.3-0.8 0.7-1 1.2-0.3 0.5-0.7 1.2-1.6 1.6q-0.3 0.1-0.5 0.1c-0.3 0-0.5-0.1-0.6-0.2 0 0.2 0 0.5 0 0.8 0 0.4-0.1 0.7-0.2 0.7 0 0-0.1-0.3-0.1-0.7 0-0.4 0-1 0-1.2 0.2-0.8 0.9-1.7 1.6-2.6 0.6-0.9 1.3-1.9 1.5-2.7zm6.2-3.4c1.8-6-0.6-11.3-1-12.1-0.7 0.7-1.4 1.6-1.9 2.5 0.4 0.8 2.8 5.5 2.9 9.6zm-8 8.9c0.8-0.4 1.1-0.9 1.4-1.5 0.3-0.5 0.5-0.9 1.2-1.3q0.2-0.1 0.4-0.2c2.1-5.4-0.2-7.7-0.8-8.2-0.2 0.7-0.3 1.3-0.4 1.8 0 0.4 0.1 1.1 0.2 1.8 0.1 0.8 0.2 1.7 0.1 2.2-0.2 0.9-0.9 1.8-1.6 2.8-0.6 0.8-1.3 1.7-1.5 2.4 0.1 0.1 0.4 0.5 1 0.2z"/>
						</g>
					</g>
					<g id="svga-group-faceshape-wrap">
						<g id="svga-group-faceshape-single">
							<path id="SvgjsPath4133" class="s1" d="m150.1 82.8c0 0-8.5 35.1-15.5 46-5.5 8.5-24.5 25.2-34.5 25.2-9.9 0.1-29-16.6-34.5-25.1-7-10.8-15.6-45.9-15.6-46-1.1-4.2-1.7-8.7-1.7-13.3-0.1-28.9 23-52.4 51.6-52.4 28.6 0 51.8 23.4 51.8 52.3 0 4.6-0.5 9-1.6 13.3z"/>
							<path id="SvgjsPath4134" class="s19" d="m120.9 21.7c15.8 8.5 26.7 26.3 26.7 46.9 0 4.6-0.5 9.1-1.5 13.3 0 0.1-7.8 35.2-14.3 46.1-5 8.5-22.6 25.2-31.7 25.2-9.1 0-26.7-16.6-31.8-25.1-6.4-10.9-14.3-46-14.3-46-1-4.3-1.6-8.7-1.6-13.3 0-20.7 10.9-38.6 26.7-47.1-18.2 8.1-30.9 26.5-30.8 47.9 0 4.6 0.6 9.1 1.7 13.3 0 0.1 8.6 35.2 15.6 46 5.5 8.5 24.6 25.2 34.5 25.1 10 0 29-16.7 34.5-25.2 7-10.9 15.5-46 15.5-46 1.1-4.3 1.6-8.7 1.6-13.3 0-21.4-12.7-39.7-30.8-47.8z"/>
							<path id="SvgjsPath4135" fill-rule="evenodd" class="s4" d="m150.1 82.8c0 0-8.5 35.1-15.5 46-5.5 8.5-24.5 25.2-34.5 25.2-9.9 0.1-29-16.6-34.5-25.1-7-10.8-15.6-45.9-15.6-46-1.1-4.2-1.7-8.7-1.7-13.3-0.1-28.9 23-52.4 51.6-52.4 28.6 0 51.8 23.4 51.8 52.3 0 4.6-0.5 9-1.6 13.3z"/>
						</g>
					</g>
					<g id="svga-group-mouth-single-move">
						<g id="svga-group-mouth-single">
							<path id="SvgjsPath4145" class="s20" d="m100.2 138c-2.4 0.1-3.1-2.4-3.1-2.4 0 0 3.3 0.5 5.9-0.3 0 0-0.7 2.6-2.8 2.7z"/>
							<path id="SvgjsPath4149" class="s18" d="m100.4 136.1c-1.7 0.1-3.2-0.1-3.3-0.1-0.1 0-0.2-0.1-0.2-0.2 0-0.1 0.2-0.2 0.3-0.2 0 0 3.4 0.4 5.7-0.3 0.1 0 0.2 0.1 0.3 0.2 0 0.1-0.1 0.2-0.2 0.2-0.8 0.3-1.7 0.4-2.6 0.4z"/>
							<path id="SvgjsPath4150" class="s21" d="m85.1 127.2c0 0 10.7 1.3 14.2 1.3 3.9 0 16.4-1.3 16.4-1.3-3.6 3-7.6 5.9-16.6 6-8.1 0-10.1-2.9-14-6z"/>
							<path id="SvgjsPath4151" fill-rule="evenodd" class="s22" d="m85.1 127.2c0 0 10.7 1.3 14.2 1.3 3.9 0 16.4-1.3 16.4-1.3-3.6 3-7.6 5.9-16.6 6-8.1 0-10.1-2.9-14-6z"/>
						</g>
					</g>
					<g id="svga-group-eyes-left-move">
						<g id="svga-group-eyes-left">
							<g id="svga-group-eyesback-left">
								<path id="SvgjsPath5210" class="s23" d="m86.5 92.2c-2.8-0.6-4.3 0.9-8.4 1-6.8 0.2-8.4-0.5-9.5-2.2-0.4-0.7-0.9-1.7-1.1-2.2l-0.1-3.6c1.2-3.3 16.7-3.7 22.1 1.5q0.3 0.9 0.4 1.6-0.3 1.3-0.9 2.4c-0.6 0.7-1.4 1.2-2.5 1.5z"/>
							</g>
							<g id="svga-group-eyesiriswrapper-left">
								<g id="svga-group-eyesiriscontrol-left">
									<g id="svga-group-eyesiris-left">
										<path id="SvgjsPath5391" class="s24" d="m84.1 88.1c0 2.8-2.3 5.1-5.1 5.1-2.9 0-5.1-2.3-5.1-5.1 0-2.8 2.2-5.1 5.1-5.1 2.8 0 5.1 2.3 5.1 5.1z"/>
										<path id="SvgjsPath5392" class="s25" d="m76 90.5c0.7-0.1 0.1-0.3 0.1-0.3-0.4-0.2-1.1-0.5-1.1-0.8 0-0.9 1.2-1.1 0-1.4-1.3-1.2 1-1.2 1-1.2-0.9-2 0.2-0.9 0.7-1.5 1.7-2.2 0.4 0.2 1.4 0 0.3-0.1-0.7-1.3 0-1.2 0.5 0.2 0.6 0.5 0.6 0.5 0.3 0 0.8-0.5 0.8-0.5 0.7 0.1 1.1 1 0.9 0.9 0.3-0.1 0.8-0.2 1.1-0.3 0 0 0.1-0.2 0.1 0 0.8 2.2 2.8 2.1 0.5 2.7 0 0-0.2 0 0.3 0.4 2.3 1.8-1.8 1.3 0.4 2.1 0.1-0.1-1.3 0.8-1.3 1.1 0 0.4-0.9 1.5-1.7 1.1-0.4-0.3-0.5 0.5-0.7 0.1-0.5-0.6-1.5 0-1.1-0.6 0.5-0.5-0.6 0.2-0.8 0.2-0.7 0 0.9-2.4 3.3-0.6 0.7 0.5-0.7-1.3 0.6-1.3 0.1 0.1 0-0.4 0-0.5-0.6-0.2 1.2 0 1.2-1.1 0.1 0 0.5-0.3-1.4 0 0 0 0-0.7 0-0.8 0.1-0.3 1-0.2 0.8-0.6 0 0-0.7-1.4-0.7-1.4-2.2-0.3-0.9-0.5-2.3-0.3-0.1 0.4-2.9 1.7-2.8 2.4 0 0.6 1.7 0.8 0.1 1.8 2.5 4.7-1.8-0.1 0 1.1z"/>
										<path id="SvgjsPath5393" class="s26" d="m79 83.6l0.1 3.7 1.6-3.4-1.3 3.6 2.7-2.6-2.5 2.8 3.5-1.3-3.4 1.5 3.7 0.2-3.7 0.1 3.4 1.6-3.5-1.3 2.5 2.7-2.7-2.5 1.3 3.5-1.6-3.4-0.1 3.7-0.2-3.7-1.5 3.4 1.2-3.5-2.7 2.5 2.5-2.7-3.5 1.3 3.4-1.6-3.7-0.1 3.7-0.2-3.4-1.5 3.5 1.3-2.5-2.8 2.7 2.6-1.2-3.6 1.5 3.4z"/>
										<path id="SvgjsPath5394" class="s27" d="m79.6 84.7l-0.4 2.8 1.7-2.3-1.5 2.5 2.4-1.5-2.3 1.7 2.8-0.5-2.8 0.7 2.8 0.6-2.8-0.4 2.3 1.7-2.4-1.5 1.4 2.4-1.6-2.3 0.4 2.8-0.6-2.8-0.7 2.8 0.4-2.8-1.6 2.3 1.5-2.4-2.5 1.5 2.3-1.7-2.8 0.4 2.8-0.6-2.8-0.7 2.8 0.5-2.3-1.7 2.5 1.5-1.5-2.5 1.6 2.3-0.4-2.8 0.7 2.8z"/>
										<path id="SvgjsPath5395" class="s28" d="m80.9 88.1c0 1-0.9 1.9-1.9 1.9-1.1 0-1.9-0.9-1.9-1.9 0-1.1 0.8-1.9 1.9-1.9 1 0 1.9 0.8 1.9 1.9z"/>
										<path id="SvgjsPath5396" class="s29" d="m77 91.7c-0.3 0.3-0.9 0.2-1.3-0.2-0.4-0.4-0.5-0.9-0.2-1.2 0.3-0.3 0.8-0.2 1.2 0.2 0.4 0.4 0.5 1 0.3 1.2z"/>
										<path id="SvgjsPath5397" class="s30" d="m83 87.1c-0.4 0.4-1.4 0.1-2.2-0.8-0.9-0.8-1.2-1.8-0.8-2.3 0.4-0.4 1.5-0.1 2.3 0.8 0.8 0.8 1.2 1.8 0.7 2.3z"/>
									</g>
								</g>
							</g>
							<g id="svga-group-eyesfront-left">
								<path id="SvgjsPath5235" fill-rule="evenodd" class="s1" d="m78.6 69.2c8.7 0 16.6 3.6 16.6 18.7 0 14.2-7.9 18.7-16.6 18.7-8.7 0-17.4-15.8-17.1-18.7 1.6-13.9 8.4-18.7 17.1-18.7zm-10 21.8c1.1 1.7 2.7 2.4 9.5 2.2 4.1-0.1 5.6-1.6 8.4-1 2.6-0.8 4.1-2.7 3-5.5-5.4-5.2-20.9-4.8-22.1-1.5l0.1 3.6c0.2 0.5 0.7 1.5 1.1 2.2z"/>
								<path id="SvgjsPath5236" fill-rule="evenodd" class="s31" d="m81 74.9c8-0.1 14.5 5.1 14.5 11.5 0 6.4-6.4 11.6-14.4 11.6-8 0.1-14.5-5.1-14.5-11.5 0-6.4 6.4-11.6 14.4-11.6zm-12.4 16.1c1.1 1.7 2.7 2.4 9.5 2.2 4.1-0.1 5.6-1.6 8.4-1 2.6-0.8 4.1-2.7 3-5.5-5.4-5.2-20.9-4.8-22.1-1.5l0.1 3.6c0.2 0.5 0.7 1.5 1.1 2.2z"/>
								<path id="SvgjsPath5241" class="s32" d="m68.6 91c-0.4-0.7-0.9-1.7-1.1-2.2l-0.1-3.6c1.2-3.3 16.7-3.7 22.1 1.5 1.1 2.8-0.4 4.7-3 5.5-2.8-0.6-4.3 0.9-8.4 1-6.8 0.2-8.4-0.5-9.5-2.2z"/>
								<path id="SvgjsPath5245" class="s18" d="m91.9 85.5c-8.2-4.9-14.2-5.2-23.9-4.6 8.1-1.3 17.4-0.4 23.9 4.6z"/>
								<path id="SvgjsPath5246" fill-rule="evenodd" class="s8" d="m90.8 89c-2.7-7.1-22-7.2-23.3-3.6v3.3c-0.8-1.3-0.9-1.4-1.2-2.9l-1.9 0.6c0 0 2.3-3.2 4.5-3.7 18.9-3.7 21.8 5.1 21.9 6.3zm-13 4.4c-8 0-8.5-0.8-9.2-2.6 1.3 1.4 2.6 2.2 9.5 2.1 4.7-0.1 5.9-2.1 9.8-0.4-3-1.1-5.5 0.8-10.1 0.9z"/>
							</g>
						</g>
					</g>
					<g id="svga-group-eyes-right-move">
						<g id="svga-group-eyes-right">
							<g id="svga-group-eyesback-right">
								<path id="SvgjsPath5218" class="s33" d="m113.2 92.2c2.8-0.6 4.2 0.9 8.3 1 6.9 0.2 8.5-0.5 9.6-2.2 0.4-0.7 0.8-1.7 1-2.2l0.1-3.6c-1.1-3.3-16.6-3.7-22 1.5q-0.4 0.9-0.4 1.6 0.3 1.3 0.8 2.4c0.6 0.7 1.5 1.2 2.6 1.5z"/>
							</g>
							<g id="svga-group-eyesiriswrapper-right">
								<g id="svga-group-eyesiriscontrol-right">
									<g id="svga-group-eyesiris-right">
										<path id="SvgjsPath5398" class="s24" d="m126.1 88.1c0 2.8-2.2 5.1-5.1 5.1-2.8 0-5.1-2.3-5.1-5.1 0-2.8 2.3-5.1 5.1-5.1 2.9 0 5.1 2.3 5.1 5.1z"/>
										<path id="SvgjsPath5399" class="s25" d="m118.1 90.5c0.7-0.1 0.1-0.3 0.1-0.3-0.4-0.2-1.1-0.5-1.1-0.8 0-0.9 1.2-1.1 0-1.4-1.3-1.2 1-1.2 0.9-1.2-0.8-2 0.3-0.9 0.8-1.5 1.6-2.2 0.4 0.2 1.3 0 0.4-0.1-0.6-1.3 0.1-1.2 0.4 0.2 0.5 0.5 0.5 0.5 0.4 0 0.9-0.5 0.9-0.5 0.6 0.1 1.1 1 0.9 0.9 0.3-0.1 0.7-0.2 1.1-0.3 0 0 0-0.2 0.1 0 0.8 2.2 2.8 2.1 0.5 2.7 0 0-0.2 0 0.3 0.4 2.3 1.8-1.8 1.3 0.4 2.1 0.1-0.1-1.3 0.8-1.3 1.1 0 0.4-0.9 1.5-1.7 1.1-0.4-0.3-0.5 0.5-0.7 0.1-0.5-0.6-1.5 0-1.1-0.6 0.5-0.5-0.6 0.2-0.8 0.2-0.7 0 0.9-2.4 3.3-0.6 0.7 0.5-0.7-1.3 0.5-1.3 0.2 0.1 0.1-0.4 0.1-0.5-0.6-0.2 1.2 0 1.2-1.1 0.1 0 0.4-0.3-1.4 0 0 0 0-0.7 0-0.8 0.1-0.3 1-0.2 0.7-0.6l-0.6-1.4c-2.2-0.3-1-0.5-2.3-0.3-0.1 0.4-3 1.7-2.9 2.4 0.1 0.6 1.8 0.8 0.2 1.8 2.4 4.7-1.8-0.1 0 1.1z"/>
										<path id="SvgjsPath5400" class="s26" d="m121 83.6l0.2 3.7 1.5-3.4-1.3 3.6 2.8-2.6-2.5 2.8 3.5-1.3-3.4 1.5 3.7 0.2-3.7 0.1 3.4 1.6-3.5-1.3 2.5 2.7-2.8-2.5 1.3 3.5-1.5-3.4-0.2 3.7-0.1-3.7-1.6 3.4 1.3-3.5-2.7 2.5 2.5-2.7-3.5 1.3 3.4-1.6-3.7-0.1 3.7-0.2-3.4-1.5 3.5 1.3-2.5-2.8 2.7 2.6-1.3-3.6 1.6 3.4z"/>
										<path id="SvgjsPath5401" class="s27" d="m121.7 84.7l-0.4 2.8 1.6-2.3-1.5 2.5 2.5-1.5-2.3 1.7 2.8-0.5-2.8 0.7 2.8 0.6-2.8-0.4 2.3 1.7-2.5-1.5 1.5 2.4-1.6-2.3 0.4 2.8-0.7-2.8-0.6 2.8 0.4-2.8-1.7 2.3 1.5-2.4-2.4 1.5 2.3-1.7-2.8 0.4 2.8-0.6-2.8-0.7 2.8 0.5-2.3-1.7 2.4 1.5-1.4-2.5 1.6 2.3-0.4-2.8 0.6 2.8z"/>
										<path id="SvgjsPath5402" class="s28" d="m123 88.1c0 1-0.9 1.9-2 1.9-1 0-1.9-0.9-1.9-1.9 0-1.1 0.9-1.9 1.9-1.9 1.1 0 2 0.8 2 1.9z"/>
										<path id="SvgjsPath5403" class="s29" d="m119 91.7c-0.3 0.3-0.8 0.2-1.2-0.2-0.4-0.4-0.5-0.9-0.2-1.2 0.3-0.3 0.8-0.2 1.2 0.2 0.4 0.4 0.5 1 0.2 1.2z"/>
										<path id="SvgjsPath5404" class="s30" d="m125.1 87.1c-0.4 0.4-1.4 0.1-2.3-0.8-0.8-0.8-1.1-1.8-0.7-2.3 0.4-0.4 1.4-0.1 2.3 0.8 0.8 0.8 1.1 1.8 0.7 2.3z"/>
									</g>
								</g>
							</g>
							<g id="svga-group-eyesfront-right">
								<path id="SvgjsPath5256" fill-rule="evenodd" class="s1" d="m138.1 87.9c-0.1 3.4-8.3 18.7-17 18.7-8.7 0-16.6-4.5-16.6-18.7 0-15.1 7.9-18.7 16.6-18.7 8.7 0 17.7 4.7 17 18.7zm-6 0.9l0.1-3.6c-1.1-3.3-16.6-3.7-22 1.5-1.2 2.8 0.3 4.7 3 5.5 2.8-0.6 4.2 0.9 8.3 1 6.9 0.2 8.5-0.5 9.6-2.2 0.4-0.7 0.8-1.7 1-2.2z"/>
								<path id="SvgjsPath5257" fill-rule="evenodd" class="s34" d="m133.1 86.5c-0.1 6.4-6.5 11.6-14.5 11.5-8 0-14.5-5.2-14.4-11.6 0-6.4 6.5-11.6 14.5-11.5 7.9 0 14.4 5.2 14.4 11.6zm-1 2.3l0.1-3.6c-1.1-3.3-16.6-3.7-22 1.5-1.2 2.8 0.3 4.7 3 5.5 2.8-0.6 4.2 0.9 8.3 1 6.9 0.2 8.5-0.5 9.6-2.2 0.4-0.7 0.8-1.7 1-2.2z"/>
								<path id="SvgjsPath5262" class="s35" d="m131.1 91c0.4-0.7 0.8-1.7 1-2.2l0.1-3.6c-1.1-3.3-16.6-3.7-22 1.5-1.2 2.8 0.3 4.7 3 5.5 2.8-0.6 4.2 0.9 8.3 1 6.9 0.2 8.5-0.5 9.6-2.2z"/>
								<path id="SvgjsPath5266" class="s18" d="m107.8 85.5c8.1-4.9 14.2-5.2 23.9-4.6-8.1-1.3-17.5-0.4-23.9 4.6z"/>
								<path id="SvgjsPath5267" fill-rule="evenodd" class="s8" d="m130.8 82.7c2.1 0.5 4.5 3.7 4.5 3.7l-1.9-0.6c-0.4 1.5-0.4 1.6-1.3 2.9v-3.3c-1.2-3.6-20.5-3.5-23.3 3.6 0.2-1.2 3.1-10 22-6.3zm-19 9.8c3.9-1.7 5 0.3 9.8 0.4 6.8 0.1 8.1-0.7 9.5-2.1-0.7 1.8-1.2 2.6-9.3 2.6-4.5-0.1-7-2-10-0.9z"/>
							</g>
						</g>
					</g>
					<g id="svga-group-facehighlight-single">
						<path id="SvgjsPath3827" class="s36" d="m134.9 113.3c0 19.3-15.6 34.9-34.8 34.9-19.3 0-34.9-15.5-35-34.8 0-19.2 15.6-34.9 34.8-34.9 19.3 0 34.9 15.6 35 34.8z"/>
						<path id="SvgjsPath3831" class="s37" d="m131.9 62.4c0 17.6-14.3 31.8-31.9 31.8-17.6 0-31.9-14.2-31.9-31.8 0-17.6 14.3-31.9 31.9-31.9 17.6 0 31.9 14.3 31.9 31.9z"/>
					</g>
					<g id="svga-group-eyebrows-left-move">
						<g id="svga-group-eyebrows-left-rotate">
							<g id="svga-group-eyebrows-left">
								<path id="SvgjsPath5268" class="s0" d="m59.6 79.2c6.4-7.9 17.3-6.6 26.3-5.3 2.2 0.3 4.6 0.6 6.8 1.1 1.6 0.4 2.9 2.2 1.6 3.7-0.6 0.7-1.9 0.6-2.7 0.6-10.8-0.2-22.9-6.4-32-0.1z"/>
							</g>
						</g>
					</g>
					<g id="svga-group-eyebrows-right-move">
						<g id="svga-group-eyebrows-right-rotate">
							<g id="svga-group-eyebrows-right">
								<path id="SvgjsPath5269" class="s0" d="m140.4 78.9c-1.8-1.2-3.7-2.1-5.9-2.4-8.1-1.3-23.5 4-27.5 2.9-2.5-0.7-2-3.2-0.9-3.8 0.6-0.4 0.8-0.3 6.7-1.4 10-1.7 21.2-3 27.6 4.7z"/>
							</g>
						</g>
					</g>
					<g id="svga-group-nose-single-move">
						<g id="svga-group-nose-single">
							<path id="SvgjsPath4166" class="s3" d="m99.2 93c0 0-0.7 17.3-0.6 21.2 0 1 2.1 3.9 1.9 6 0 0-4-0.3-5.3-0.8-1.4-0.5-3.6-1.5-2.7-4.1 1.2-3.8 6.7-22.3 6.7-22.3z"/>
							<path id="SvgjsPath4167" fill-rule="evenodd" class="s18" d="m96.4 116.2c-0.9-0.2-1.2 0-1.3 0.4-0.1 0.3 0 1 1 1 1.1-0.1 2.7 0.5 2.7 0.5 0 0-1.4-1.6-2.4-1.9zm5 1.9c0 0 1.6-0.5 2.7-0.5 1-0.1 1.1-0.7 1-1-0.1-0.4-0.4-0.6-1.3-0.4-1 0.3-2.4 1.9-2.4 1.9z"/>
						</g>
					</g>
					<g id="svga-group-beardwrap">
						<g id="svga-group-beard-single-move">
							<g id="svga-group-beard-single">
								<path id="SvgjsPath5405" class="s38" d=""/>
							</g>
						</g>
					</g>
					<g id="svga-group-mustache-single-move">
						<g id="svga-group-mustache-single">
							<path id="SvgjsPath5292" class="s38" d=""/>
						</g>
					</g>
					<g id="svga-group-hair-front">
						<path id="SvgjsPath5419" class="s39" d="m154.7 59.6c-0.1-2.8-1.3-7-2.1-9.6-1 1.6-1.1 1.6-1.6 2.5-0.2-1.1-1.4-11.9-5.4-18.1-0.5 1.7 0 3.5-1 4.8-2.1-4.6-5.3-12.4-12.6-17.6 0.8 2 0.4 2.5 0.6 3.2-2.2-3.1-4.7-4.7-8.8-7.1 0 1.5 0.1 2.4 0.1 2.4-1.5-1.8-4.9-6.6-9.3-9.4 0.2 0.8-0.2 2.4 0 3.2-1.5-3.1-5.9-9-10.2-8.3-1.2-1.2-2.3-3.3-3.4-4.7-0.7 3.7-6.5 11.8-12.4 15.4 0.2-1.5-0.1-2.8-0.5-4.4-1.1 2.2-4.6 6.5-7.1 7.5 0.2-1.1 0-3.2 0-3.2-1.3 1.8-2.5 2.8-4.3 4.3 0-1 0.6-3.1 0.9-4.1-2.8 1.2-5.6 4.5-7.7 6.9-0.2-1.4 0.3-4.2 0.7-4.8-10 6.6-14.7 11.9-19.3 24.7-0.3-0.6-0.5-1.4-0.6-3.5-5.7 9.3-9 15.7-3 38.9-1.2-0.7-1.9-1.2-2.8-2.2 1.4 9.7 3.5 12.9 10.8 21.2 3.5-4.2 1.6-11.5 1-15 0.1-5.2 1.6-4.3 1.8-6.7 0.1-1.1 0.6-2.9 0.5-3.9-0.4-4.3 1-11.9 3-16.9 3-4.5 6.5-7.5 11.1-10.2 7.1-1.4 13.8 1.5 15.8 2 3.7 1 18.5 1 22.1 0 2.6-0.6 9.7-3.6 17.1-1.7 5.5 3.2 8.6 6.2 10.9 12 1.5 4.6 2.3 10.3 1.9 13.9-0.1 1.1 0.4 3.7 0.5 4.8 0.1 1 1.4 3.1 1.6 4.1 0.9 3.9-1.1 14.4-1.1 14.4 0 1.4 0.1 2.9 0.6 4.3 5.2-3.3 5.6-5.3 6.4-7.7 0.6-2.1 3.9-9.8 4-11.2-0.7 0.7-2.1 1.6-2.8 2 0.6-2.4 3.4-6.8 3.9-9.4 0.9-4.5 0.9-8.1 0.7-12.8z"/>
						<path id="SvgjsPath5420" class="s0" d="m154.7 59.6c-0.1-2.8-1.3-7-2.1-9.6-1 1.6-1.1 1.6-1.6 2.5-0.2-1.1-1.4-11.9-5.4-18.1-0.5 1.7 0 3.5-1 4.8-2.1-4.6-5.3-12.4-12.6-17.6 0.8 2 0.4 2.5 0.6 3.2-2.2-3.1-4.7-4.7-8.8-7.1 0 1.5 0.1 2.4 0.1 2.4-1.5-1.8-4.9-6.6-9.3-9.4 0.2 0.8-0.2 2.4 0 3.2-1.5-3.1-5.9-9-10.2-8.3-1.2-1.2-2.3-3.3-3.4-4.7-0.7 3.7-6.5 11.8-12.4 15.4 0.2-1.5-0.1-2.8-0.5-4.4-1.1 2.2-4.6 6.5-7.1 7.5 0.2-1.1 0-3.2 0-3.2-1.3 1.8-2.5 2.8-4.3 4.3 0-1 0.6-3.1 0.9-4.1-2.8 1.2-5.6 4.5-7.7 6.9-0.2-1.4 0.3-4.2 0.7-4.8-10 6.6-14.7 11.9-19.3 24.7-0.3-0.6-0.5-1.4-0.6-3.5-5.7 9.3-9 15.7-3 38.9-1.2-0.7-1.9-1.2-2.8-2.2 1.4 9.4 3.4 12.7 10.2 20.5-3.3-5.5-7.2-10.2-8.6-16.7 1.7 0.9 4.2 2.6 5.9 3.4-4.2-11.9-8.5-27.2-2.5-38.2 0.8 3.4 3 7.4 4.7 9.9-3.8-10.1 4.6-22.7 10.6-30.3 0 4.2-0.9 9.3 0.8 13.6 0-6 4.3-9.4 6.8-14.5 0 3.4-0.8 6 0.9 9.4 0.8-4.3 1.7-8.5 4.2-11.9 1.7 3.4 0.9 6.8 2.6 10.2 0-5.1 2.5-7.7 3.4-11.9 1.8 4.3 3.4 5.1 4.2 8.5-0.8-9.4 12.1-10.2 12.9-19.5 0.9 5.9 2.4 10.1 1.6 16.9 3.4-4.2 5.1-9.3 5.9-15.3 6 5.1 4.3 11.9 6.8 17.9 1.7-3.4 1.7-7.7 2.6-11.9 3.4 5.9 6.8 12.7 9.3 19.5 0.9-4.2 2.4-6.2 0-12.7 6 4.2 10.2 11.9 9.4 19.5 0.8-4.2 1.7-8.5 1.7-12.7 0.8 9.3 6.8 17.8 5.9 28 1.7-4.2 3.4-8.5 3.4-13.6 0.8 8.6 2.3 17.8-0.1 26.5 1.3-3.2 3.5-6.2 3.5-10.3 2.6 9.3-5.9 17-5.1 26.3 0-1.4 2.5-2.3 3.2-3.5q0.1-0.4 0.2-0.7 0 0.3-0.2 0.7c-1.4 4.5-2.5 9.1-4.2 13.5 3-2.3 3.3-4 4-6 0.6-2.1 3.9-9.8 4-11.2-0.7 0.7-2.1 1.6-2.8 2 0.6-2.4 3.4-6.8 3.9-9.4 0.9-4.5 0.9-8.1 0.7-12.8z"/>
						<path id="SvgjsPath5421" class="s40" d="m152.4 48.2c-0.3 1.3-0.4 1.6-0.9 3-0.5-4.8-2.6-12.5-6.3-17.9-0.1 1.8-0.2 2.8-0.5 4.6-1-3.7-5.5-11.9-13.4-17.3q0.2 0.5 0.3 0.9c0.2 0.7 0.4 1.4 0.7 2.2-3.3-4.1-6.2-4.8-9.1-6.7 0.2 0.8 0.3 1.7 0.3 1.7-3.5-4.7-6-6.5-9.2-8.3 0.1 0.4 0.2 2.1 0.1 3.1-2-4.4-3.9-7.6-10.1-8.2-0.4-0.9-1.9-3.5-3.5-5.1-1.9 6.8-7.3 11.6-12 15.7 0-1.6-0.3-3.2-0.6-4.7-1.9 3.4-3.4 5.3-7 8 0-0.6 0.1-2.6 0-3.8-1 1.4-2.5 3.1-4.3 4.6 0 0 1-4.1 1-4.2q-0.2 0.1-0.4 0.2c-0.8 0.2-4.4 2.5-7.6 6.7 0.3-2.9 0.9-4 1.1-4.8-9.4 5.4-16.9 13.8-19.9 24.5-0.1-1.5-0.2-2.7-0.2-3.2-4.3 5.4-6.4 11-6.7 12.5-1.7 7.8 0.4 21 3 26.5-1.6-1.3-0.2 0-2.7-2.3 0 4 0.8 6.8 2.3 10.3 2.1 4.8 5 7.9 8.9 11.4-4-4.9-9.5-11.7-10.6-20.6 0.8 0.8 1.2 1 2.4 2q0 0 0 0c0.6 0.4 0.3 0.2 0.9 0.6-6.4-23.1-1.8-32.3 2.1-39.5 0.1 3.4 0.7 4.9 1.9 6.7-0.6-1.4-0.6-1-1-2.8 3.1-9.8 10.3-17.8 18.2-24.4q0.3-0.3 0.6-0.5c-0.3 0.7-0.7 2.9-0.7 4.2-1.8 2.6-2.1 4.8-2.3 5.7 0.3-0.9 0.6-2.3 2.3-4.6 2.2-3.4 6.1-6.7 7.9-7.9-1.2 3.7-1.2 5.2-1.1 8 0.1-1.6 0.1-1.7 0.5-3.8 1.4-1.1 2.8-2.5 4.1-4.2-0.1 2 0 4.7-1.1 7.1 1-1.4 1.3-3.1 1.3-4 1.1-0.7 3.8-1.8 6.9-7.1 0.7 4.5 0.2 7-0.5 8.8 0.6-1 1.3-2.4 1.3-4.9 5.8-3.9 9.8-7.4 12.1-14.3q0.1-0.4 0.2-0.8c1.3 1.9 6.4 10.1 5.4 12.4 1.3-1.4-1-6.4-2-8.1 6.5 1.6 7.2 3.4 11.6 12.6-0.5-1.7-1-3.2-1.3-4 0.2-1.6 0-2.3 0-3.2 4.4 3.4 11.7 11.5 11.7 17.7 0.4-2.3 0.2-4.3-1.6-7.8q-0.4-0.6-0.7-1.1c-0.1-0.6-0.3-1.7-0.3-1.7 1.5 1.6 4.9 2 8.9 8 0.5 0.7 2.9 5.4 3.9 7.1-2-5.6-2.6-6.5-3.3-7.8-0.3-1.5-0.3-1.4-0.8-3 8.9 8.9 12.3 14.4 13.4 27 0.2-3.4 0.1-6.8-0.8-10 0.2-1.2 0.4-2.5 0.6-3.8 0.6 1.2 3 7.2 4.2 13.1 1 5.1 1 8.3 0.7 11.7 0.9-3.6 1-6.8 0.8-8 0.3-0.5 0.6-1.1 0.8-1.5 1.6 8.9 4.1 16.3-3.1 31.8 0.8-0.4 2.3-1.2 3.2-2.3 0 0-2.5 6.1-3.9 9.9-2.4 5.9-2.1 5.3-6 8.4 4.3-1.8 5.5-4.3 7-8 2.6-7.8 2.4-5.2 4.4-12.9-0.9 1.2-1.6 2.2-2.8 3.2 7.9-14.4 3.7-24.2 1.3-32.8z"/>
					</g>
					<g id="svga-group-glasses-single-move">
						<g id="svga-group-glasses-single">
							<path id="SvgjsPath5320" class="s41" d=""/>
						</g>
					</g>
				</g>
			</g>
		</g>
		<text id="SvgjsTspan3814" style="transform: matrix(1,0,0,1,58.007,195.428)" >
			<tspan x="0" y="0" class="t42">Created on face.co
</tspan>
		</text>
	</g>
</svg>